HIERARCHY
ROOT Hips
{
	OFFSET 0.00000 0.00000 0.00000
	CHANNELS 6 Xposition Yposition Zposition Zrotation Yrotation Xrotation 
	JOINT LHipJoint
	{
		OFFSET 0 0 0
		CHANNELS 3 Zrotation Yrotation Xrotation
		JOINT LeftUpLeg
		{
			OFFSET 2.10660 -1.59283 1.11709
			CHANNELS 3 Zrotation Yrotation Xrotation
			JOINT LeftLeg
			{
				OFFSET 2.03633 -5.59477 0.00000
				CHANNELS 3 Zrotation Yrotation Xrotation
				JOINT LeftFoot
				{
					OFFSET 2.74354 -7.53782 0.00000
					CHANNELS 3 Zrotation Yrotation Xrotation
					JOINT LeftToeBase
					{
						OFFSET 0.09177 -0.25215 1.99109
						CHANNELS 3 Zrotation Yrotation Xrotation
						End Site
						{
							OFFSET 0.00000 -0.00000 1.01710
						}
					}
				}
			}
		}
	}
	JOINT RHipJoint
	{
		OFFSET 0 0 0
		CHANNELS 3 Zrotation Yrotation Xrotation
		JOINT RightUpLeg
		{
			OFFSET -1.86456 -1.59283 1.11709
			CHANNELS 3 Zrotation Yrotation Xrotation
			JOINT RightLeg
			{
				OFFSET -2.09328 -5.75123 0.00000
				CHANNELS 3 Zrotation Yrotation Xrotation
				JOINT RightFoot
				{
					OFFSET -2.65375 -7.29113 0.00000
					CHANNELS 3 Zrotation Yrotation Xrotation
					JOINT RightToeBase
					{
						OFFSET -0.08891 -0.24428 1.95541
						CHANNELS 3 Zrotation Yrotation Xrotation
						End Site
						{
							OFFSET -0.00000 -0.00000 0.99928
						}
					}
				}
			}
		}
	}
	JOINT LowerBack
	{
		OFFSET 0 0 0
		CHANNELS 3 Zrotation Yrotation Xrotation
		JOINT Spine
		{
			OFFSET -0.11002 1.82513 -0.30878
			CHANNELS 3 Zrotation Yrotation Xrotation
			JOINT Spine1
			{
				OFFSET 0.02136 1.89008 0.15052
				CHANNELS 3 Zrotation Yrotation Xrotation
				JOINT Neck
				{
					OFFSET 0 0 0
					CHANNELS 3 Zrotation Yrotation Xrotation
					JOINT Neck1
					{
						OFFSET -0.02611 1.82648 0.12298
						CHANNELS 3 Zrotation Yrotation Xrotation
						JOINT Head
						{
							OFFSET 0.06033 1.80858 -0.32888
							CHANNELS 3 Zrotation Yrotation Xrotation
							End Site
							{
								OFFSET 0.01403 1.85203 -0.12607
							}
						}
					}
				}
				JOINT LeftShoulder
				{
					OFFSET 0 0 0
					CHANNELS 3 Zrotation Yrotation Xrotation
					JOINT LeftArm
					{
						OFFSET 3.64598 0.79256 -0.42249
						CHANNELS 3 Zrotation Yrotation Xrotation
						JOINT LeftForeArm
						{
							OFFSET 4.92383 -0.00000 0.00000
							CHANNELS 3 Zrotation Yrotation Xrotation
							JOINT LeftHand
							{
								OFFSET 2.65826 -0.00000 0.00000
								CHANNELS 3 Zrotation Yrotation Xrotation
								JOINT LeftFingerBase
								{
									OFFSET 0 0 0
									CHANNELS 3 Zrotation Yrotation Xrotation
									JOINT LeftHandIndex1
									{
										OFFSET 0.73343 -0.00000 0.00000
										CHANNELS 3 Zrotation Yrotation Xrotation
										End Site
										{
											OFFSET 0.59131 -0.00000 0.00000
										}
									}
								}
								JOINT LThumb
								{
									OFFSET 0 0 0
									CHANNELS 3 Zrotation Yrotation Xrotation
									End Site
									{
										OFFSET 0.60034 -0.00000 0.60034
									}
								}
							}
						}
					}
				}
				JOINT RightShoulder
				{
					OFFSET 0 0 0
					CHANNELS 3 Zrotation Yrotation Xrotation
					JOINT RightArm
					{
						OFFSET -3.83899 0.50520 -0.46242
						CHANNELS 3 Zrotation Yrotation Xrotation
						JOINT RightForeArm
						{
							OFFSET -4.63604 -0.00000 0.00000
							CHANNELS 3 Zrotation Yrotation Xrotation
							JOINT RightHand
							{
								OFFSET -2.86243 -0.00000 -0.00000
								CHANNELS 3 Zrotation Yrotation Xrotation
								JOINT RightFingerBase
								{
									OFFSET 0 0 0
									CHANNELS 3 Zrotation Yrotation Xrotation
									JOINT RightHandIndex1
									{
										OFFSET -0.75891 -0.00000 0.00000
										CHANNELS 3 Zrotation Yrotation Xrotation
										End Site
										{
											OFFSET -0.61185 -0.00000 0.00000
										}
									}
								}
								JOINT RThumb
								{
									OFFSET 0 0 0
									CHANNELS 3 Zrotation Yrotation Xrotation
									End Site
									{
										OFFSET -0.62119 -0.00000 0.62119
									}
								}
							}
						}
					}
				}
			}
		}
	}
}
MOTION
Frames: 4
Frame Time: .0083333
0.741600 16.118600 6.213500 6.548900 -0.967200 2.525300 0.000000 0.000000 0.000000 -34.263600 -6.747900 18.919100 0.000000 0.000000 0.000000 0.338500 5.088000 -14.046900 0.158100 2.561600 7.060500 0.000000 0.000000 0.000000 2.007000 33.790600 -28.715600 -1.838500 -8.521300 24.309000 -0.456500 -10.782300 -20.867300 -0.542900 -4.720500 13.113000 -10.542200 0.102200 12.734400 1.037000 -1.640800 -4.965200 7.513800 0.132800 -12.450100 -2.861300 -4.819200 -9.828600 2.628500 -6.694200 18.983300 0.693100 -3.166900 7.647400 0.000000 0.000000 0.000000 -88.693400 1.576200 27.345500 16.129600 -25.696100 -3.702000 -0.000000 0.000000 -3.339900 5.314500 19.250900 1.756700 -7.125000 0.000000 -0.000000 -22.022200 48.012700 -1.715100 0.000000 0.000000 0.000000 87.282800 -16.767900 23.675400 -13.199500 21.578800 -2.526200 0.000000 0.000000 7.818400 -9.149600 22.010600 -3.454300 7.125000 -0.000000 -0.000000 12.367800 -8.128800 10.755100
0.736300 16.099300 6.345300 6.759200 -0.778000 2.629000 0.000000 0.000000 0.000000 -34.477200 -6.457400 19.324000 0.000000 -0.000000 -0.000000 0.384400 4.704500 -14.393700 0.138900 2.401600 6.616900 0.000000 0.000000 0.000000 1.221400 34.517900 -28.745000 -1.750700 -8.326300 23.709500 -0.522500 -10.888400 -21.627000 -0.526500 -4.649800 12.912400 -10.576200 0.050900 12.693100 0.968000 -1.725300 -5.066300 7.474300 0.100900 -12.527100 -2.833000 -4.801000 -9.547100 2.586400 -6.660700 18.682900 0.688500 -3.159100 7.494800 0.000000 0.000000 0.000000 -88.785600 1.660400 27.452600 16.058500 -25.599900 -3.671200 -0.000000 0.000000 -3.331000 5.487000 18.800400 1.773200 -7.125000 0.000000 -0.000000 -21.667400 47.618200 -1.465200 0.000000 0.000000 0.000000 87.246300 -16.999700 23.582500 -13.194900 21.572200 -2.524500 0.000000 0.000000 7.948300 -8.888300 21.107000 -3.223300 7.125000 -0.000000 -0.000000 12.525800 -9.041200 10.666800
0.724100 16.080200 6.483000 6.799700 -0.565100 2.688300 0.000000 0.000000 0.000000 -34.460300 -6.161900 19.792200 0.000000 0.000000 0.000000 0.419800 4.375200 -14.633500 0.103300 2.072500 5.706000 0.000000 0.000000 0.000000 0.762400 35.279600 -28.685800 -1.695200 -8.200100 23.323400 -0.565300 -11.125400 -22.272700 -0.492100 -4.497600 12.481100 -10.468500 0.033900 12.717200 0.944800 -1.736800 -5.108300 7.391000 0.091100 -12.589300 -3.048400 -4.865400 -9.486700 2.715100 -6.734100 18.554600 0.760900 -3.199100 7.456600 0.000000 0.000000 0.000000 -88.879000 1.626200 27.643200 15.927900 -25.422800 -3.614900 -0.000000 0.000000 -3.302000 5.747600 18.060400 1.787300 -7.125000 0.000000 -0.000000 -21.117300 46.963800 -1.069600 0.000000 0.000000 0.000000 87.266700 -17.116300 23.300200 -13.157900 21.518200 -2.510900 0.000000 0.000000 8.070600 -9.095300 21.276600 -3.324700 7.125000 -0.000000 -0.000000 12.396300 -8.855500 10.598000
0.712000 16.064300 6.626700 6.705800 -0.382900 2.701900 0.000000 0.000000 0.000000 -34.291100 -5.809700 20.289200 0.000000 -0.000000 -0.000000 0.447100 4.067100 -14.782100 0.068300 1.686200 4.639200 0.000000 0.000000 0.000000 0.716800 35.653900 -28.559100 -1.660500 -8.119900 23.078800 -0.562500 -11.379500 -22.504100 -0.422800 -4.173200 11.564400 -10.339200 -0.044800 12.668700 0.964400 -1.809900 -5.085700 7.353000 0.041400 -12.517500 -3.132200 -4.902800 -9.557600 2.780800 -6.789100 18.720900 0.786800 -3.222900 7.530900 -0.000000 0.000000 0.000000 -88.908100 1.531900 27.528300 15.825200 -25.283100 -3.571000 -0.000000 0.000000 -3.183700 5.796100 17.606900 1.758700 -7.125000 0.000000 -0.000000 -20.887000 46.546400 -0.832800 -0.000000 0.000000 0.000000 87.314000 -17.038200 23.035400 -12.942900 21.203400 -2.432600 0.000000 0.000000 8.425600 -9.165200 21.429700 -3.373500 7.125000 -0.000000 -0.000000 12.353200 -8.698500 10.598900
